<?xml version="1.0" encoding="utf-8"?>
<!-- Generator: Adobe Illustrator 27.9.0, SVG Export Plug-In . SVG Version: 6.00 Build 0)  -->
<svg version="1.1" id="artwork" xmlns="http://www.w3.org/2000/svg" xmlns:xlink="http://www.w3.org/1999/xlink" x="0px" y="0px"
	 viewBox="0 0 58.65 100.37" style="enable-background:new 0 0 58.65 100.37;" xml:space="preserve">
<style type="text/css">
	.st0{fill:#92BC43;}
</style>
<path class="st0" d="M30.39,0.68c-0.03-0.25-0.16-0.44-0.33-0.58l0.38,40.37c0.87,2.68,1.95,4.32,1.95,7.37
	c0,2.86-1.4,5.17-3.06,5.17c-1.66,0-3.06-2.32-3.06-5.17c0-3.22,1.2-4.87,2.09-7.82L28.73,0c-0.24,0.14-0.42,0.36-0.46,0.68
	C23.64,37.89,0,45.56,0,71.44c0,15.98,13.42,28.94,29.32,28.94c15.9,0,29.33-12.96,29.33-28.94C58.65,45.56,35.01,37.89,30.39,0.68z
	 M30.55,82.56c0,0.2-0.08,0.35-0.24,0.47c-0.62,0.37-1.31,0.69-2.08,0.97c-0.65,0.23-1.43,0.45-2.34,0.64
	c-0.9,0.19-1.89,0.29-2.96,0.29c-1.49,0-2.88-0.27-4.17-0.82c-1.29-0.55-2.42-1.29-3.39-2.22s-1.74-2.04-2.29-3.32
	c-0.56-1.28-0.83-2.65-0.83-4.11c0-1.46,0.28-2.84,0.83-4.12c0.56-1.29,1.32-2.4,2.29-3.35c0.97-0.95,2.1-1.7,3.39-2.25
	c1.29-0.56,2.68-0.83,4.17-0.83c1.35,0,2.65,0.24,3.89,0.72c1.24,0.48,2.37,1.15,3.38,2c0.12,0.12,0.18,0.25,0.19,0.41
	c0.01,0.16-0.04,0.29-0.16,0.41l-1.85,1.9c-0.24,0.23-0.5,0.23-0.77,0c-1.31-1.13-2.81-1.7-4.5-1.7c-0.93,0-1.81,0.18-2.62,0.54
	s-1.52,0.85-2.11,1.48c-0.6,0.62-1.07,1.35-1.41,2.16c-0.35,0.82-0.52,1.69-0.52,2.6c0,0.92,0.17,1.78,0.52,2.59
	c0.35,0.81,0.82,1.52,1.43,2.12c0.61,0.6,1.31,1.09,2.13,1.45c0.81,0.36,1.69,0.54,2.62,0.54c0.83,0,1.56-0.09,2.17-0.28
	c0.62-0.19,1.07-0.34,1.37-0.45v-2.56h-2.23c-0.15,0-0.27-0.05-0.38-0.14c-0.1-0.1-0.15-0.22-0.15-0.37v-2.25
	c0-0.31,0.25-0.56,0.56-0.56h5.54c0.16,0,0.29,0.05,0.39,0.16c0.1,0.11,0.15,0.24,0.15,0.39V82.56z M48.12,73.19
	c-0.35,0.8-0.82,1.51-1.43,2.13c-0.61,0.62-1.31,1.1-2.11,1.44c-0.8,0.35-1.66,0.52-2.57,0.52h-3.72v6.63
	c0,0.16-0.05,0.29-0.16,0.39c-0.11,0.11-0.24,0.16-0.4,0.16h-2.74c-0.16,0-0.29-0.05-0.4-0.16c-0.11-0.11-0.16-0.24-0.16-0.39V64.57
	c0-0.16,0.05-0.29,0.16-0.39c0.11-0.11,0.24-0.16,0.4-0.16h6.99c0.91,0,1.78,0.17,2.59,0.52c0.81,0.35,1.52,0.82,2.13,1.41
	c0.6,0.6,1.08,1.29,1.43,2.1c0.35,0.8,0.52,1.65,0.52,2.54C48.64,71.52,48.47,72.39,48.12,73.19z M43.99,68.18
	c-0.29-0.26-0.63-0.47-1-0.62c-0.37-0.15-0.77-0.23-1.2-0.23h-3.51v6.08h3.51c0.42,0,0.82-0.08,1.2-0.24c0.37-0.16,0.71-0.38,1-0.67
	c0.29-0.28,0.52-0.62,0.68-1c0.16-0.38,0.24-0.8,0.24-1.24c0-0.42-0.08-0.81-0.24-1.17C44.51,68.75,44.29,68.44,43.99,68.18z"/>
</svg>
